Coordinates
version=1
nRows=17
nColumns=34
inDegrees=yes

Units are S.I. units (second, meters, Newtons, ...)
If the header above contains a line with 'inDegrees', this indicates whether rotational values are in degrees (yes) or radians (no).

endheader
time	pelvis_tilt	pelvis_list	pelvis_rotation	pelvis_tx	pelvis_ty	pelvis_tz	hip_flexion_r	hip_adduction_r	hip_rotation_r	knee_angle_r	ankle_angle_r	subtalar_angle_r	mtp_angle_r	hip_flexion_l	hip_adduction_l	hip_rotation_l	knee_angle_l	ankle_angle_l	subtalar_angle_l	mtp_angle_l	lumbar_extension	lumbar_bending	lumbar_rotation	arm_flex_r	arm_add_r	arm_rot_r	elbow_flex_r	pro_sup_r	arm_flex_l	arm_add_l	arm_rot_l	elbow_flex_l	pro_sup_l
      0.96666670	      4.84657464	      0.33042484	    -16.85945339	      0.24408537	      0.98981291	      0.11512569	     11.00176239	     -6.86341777	    -14.45565476	     20.34522114	     12.16917987	      5.29156663	      0.00000000	     14.73316644	     -9.44243953	    -21.16210190	     22.75783258	     13.45867949	      3.46824207	      0.00000000	    -13.71412480	     -1.40899621	     -0.50198187	     42.56523927	    -18.47093315	     30.30185334	    106.07673343	    119.60769413	     43.74562418	    -21.68812744	     30.13067075	    107.72725582	    119.69019771
      0.98333330	      4.48909677	      0.42419781	    -16.87094930	      0.24755473	      0.99218965	      0.11667092	     10.37599013	     -6.57601805	    -14.50602025	     18.80107146	     11.79162263	      5.50215148	      0.00000000	     14.15365564	     -9.14683452	    -21.27596448	     21.28005820	     13.09697294	      3.69192631	      0.00000000	    -12.57543580	     -1.38290990	     -0.49241196	     41.41735995	    -18.78917079	     30.86783073	    105.77529978	    119.61516882	     42.56783323	    -21.86879008	     30.55974601	    107.43264775	    119.69760013
      1.00000000	      5.45257252	      0.17649564	    -16.82706768	      0.25182292	      0.99713643	      0.11804341	      7.71335416	     -6.14079651	    -14.16637063	     16.24212628	     10.74140673	      5.25790240	      0.00000000	     11.64002911	     -8.58701629	    -21.25682209	     18.95272245	     12.28722465	      3.88873013	      0.00000000	    -13.02380910	     -1.39763794	     -0.60128591	     40.30510440	    -18.89491707	     30.84665372	    105.18158309	    119.42322496	     41.21067213	    -21.81291297	     29.98086777	    107.01193488	    119.52326888
      1.01666670	      5.73539615	      0.13674595	    -16.82357981	      0.25531530	      0.99999797	      0.11931287	      6.29774222	     -5.86653392	    -13.75093174	     14.52573101	      9.97482521	      4.94052348	      0.00000000	     10.26805345	     -8.14735616	    -21.14439383	     17.29912703	     11.68216797	      3.97506193	      0.00000000	    -12.66429041	     -1.43893819	     -0.61813904	     39.11911104	    -19.19340995	     31.19303604	    104.45840574	    119.22348536	     39.82356130	    -21.82385087	     29.83215547	    106.47341334	    119.34250652
      1.03333330	      6.03643121	      0.09830902	    -16.79619470	      0.25874896	      1.00240565	      0.12022649	      5.01824755	     -5.63726228	    -13.31376484	     13.08166408	      9.34188325	      4.51484667	      0.00000000	      9.01869730	     -7.74290519	    -20.92850030	     15.85939490	     11.19389485	      3.92554312	      0.00000000	    -12.32566233	     -1.46350796	     -0.64713639	     37.90327867	    -19.49706529	     31.65796661	    103.55283742	    118.98358783	     38.32068932	    -21.75909345	     29.69636256	    105.85623319	    119.12214568
      1.05000000	      6.36277264	      0.05501742	    -16.75716340	      0.26184389	      1.00435414	      0.12103630	      3.82079481	     -5.46964213	    -12.89073522	     11.85131364	      8.85099121	      4.04790568	      0.00000000	      7.86282462	     -7.36547448	    -20.66666956	     14.64624038	     10.81985214	      3.82800731	      0.00000000	    -12.01213231	     -1.47368691	     -0.66743859	     36.60677830	    -19.76813846	     32.20424889	    102.40831125	    118.69579758	     36.69875999	    -21.59573598	     29.58339045	    105.07514005	    118.85482244
      1.06666670	      6.74162527	      0.02076258	    -16.70730643	      0.26484365	      1.00598876	      0.12166501	      2.64007030	     -5.34235597	    -12.47404065	     10.74357465	      8.48186335	      3.59164612	      0.00000000	      6.74540119	     -7.00919190	    -20.40946703	     13.58132828	     10.57987861	      3.73880898	      0.00000000	    -11.74219037	     -1.49278296	     -0.65729835	     35.23388290	    -19.98800946	     32.78022604	    100.98491600	    118.33920844	     34.97480490	    -21.34422859	     29.50675320	    104.03170773	    118.52896888
      1.08333330	      6.87770006	      0.04113655	    -16.63010603	      0.26770120	      1.00682984	      0.12225954	      1.89166219	     -5.28528037	    -12.20489900	      9.97770624	      8.43022474	      3.49143441	      0.00000000	      6.06336978	     -6.74563475	    -20.19889394	     12.84935209	     10.66288741	      3.80746985	      0.00000000	    -11.14566578	     -1.47150766	     -0.59829645	     33.67099090	    -20.24998119	     33.28232504	     99.32486009	    118.16603439	     33.16866100	    -21.09393037	     29.68665424	    102.56259720	    118.36895924
      1.10000000	      7.58696915	     -0.03111098	    -16.57720011	      0.27110080	      1.00856853	      0.12300754	      0.22083598	     -5.21260887	    -11.83510525	      8.69030427	      8.09705808	      2.94347811	      0.00000000	      4.51368495	     -6.34444175	    -20.09300911	     11.73964291	     10.46427489	      3.83183463	      0.00000000	    -11.17466886	     -1.54289756	     -0.59986758	     32.00730584	    -20.42613687	     33.60453081	     97.49459051	    117.62925687	     31.00047139	    -20.84483191	     29.45937184	    101.22760069	    117.91610382
      1.11666670	      7.75960795	     -0.01932780	    -16.56356476	      0.27349474	      1.00896976	      0.12366806	     -0.46079964	     -5.17266874	    -11.60652300	      8.04585436	      8.25115798	      2.87717002	      0.00000000	      3.94137212	     -6.15778946	    -19.92297511	     11.29048079	     10.73840827	      3.91352607	      0.00000000	    -10.67074339	     -1.55395345	     -0.48566319	     30.25103858	    -20.57326203	     33.94813904	     95.32754927	    117.42232795	     29.02299727	    -20.57375785	     29.68966572	     99.25576590	    117.75102867
      1.13333330	      8.10007117	     -0.03216211	    -16.56061404	      0.27581757	      1.00970192	      0.12417455	     -1.43127389	     -5.14512612	    -11.40367060	      7.16929168	      8.17680742	      2.82540422	      0.00000000	      3.09403436	     -5.90461175	    -19.84539379	     10.64110920	     10.74954776	      4.09675655	      0.00000000	    -10.33554537	     -1.55486921	     -0.36515451	     28.35408431	    -20.49506421	     34.10681605	     92.84710861	    117.12641688	     26.92198950	    -20.15043927	     29.62862067	     96.96315433	    117.51646561
      1.15000000	      8.75940261	     -0.09849182	    -16.57924236	      0.27854315	      1.01091559	      0.12540147	     -2.96348584	     -5.07722317	    -11.16331032	      5.93683840	      7.95347402	      2.61376031	      0.00000000	      1.72175950	     -5.60143924	    -19.91037965	      9.72501070	     10.66114600	      4.37117768	      0.00000000	    -10.30967542	     -1.72526733	     -0.23518004	     26.34995431	    -20.30408990	     34.08208250	     89.99327552	    116.51826247	     24.68277304	    -19.72979576	     29.34120683	     94.30343703	    117.03166069
      1.16666670	      9.25997736	     -0.17287270	    -16.59591923	      0.28099615	      1.01182752	      0.12634488	     -4.21941950	     -4.99908017	    -10.79986217	      4.90760178	      7.83767087	      2.47865070	      0.00000000	      0.57931553	     -5.35037400	    -19.90747668	      8.88727436	     10.70779421	      4.54941010	      0.00000000	    -10.08648698	     -1.74738717	     -0.12983641	     24.51828893	    -20.05146166	     34.26002534	     86.47549035	    115.92169734	     22.65247452	    -19.39701066	     29.39785214	     90.74108464	    116.54307188
      1.18333330	      9.54112400	     -0.23444550	    -16.60611737	      0.28321696	      1.01232811	      0.12697389	     -5.08081181	     -4.92054448	    -10.47172043	      4.15605625	      7.93833923	      2.54955815	      0.00000000	     -0.21646017	     -5.16631736	    -19.69751551	      8.23534459	     10.93950985	      4.72793616	      0.00000000	     -9.68850783	     -1.66104198	     -0.03807871	     22.79513472	    -19.79873361	     34.32784030	     82.48387583	    115.60802663	     20.69650529	    -18.99794825	     29.46641856	     86.59383943	    116.27290600
      1.20000000	      9.76709759	     -0.25338291	    -16.64201655	      0.28577807	      1.01275061	      0.12797257	     -6.00641125	     -4.84252450	    -10.27183776	      3.17040852	      7.82801464	      2.67879500	      0.00000000	     -1.05155905	     -4.94327642	    -19.62820220	      7.41633002	     10.97613324	      4.91666306	      0.00000000	     -9.24423499	     -1.66383460	      0.08973795	     20.96321985	    -19.36361840	     34.30385070	     78.19861740	    115.28474835	     18.73961749	    -18.60334613	     29.36290334	     82.12683562	    116.00277318
      1.21666670	     10.06707311	     -0.31136127	    -16.70242698	      0.28740215	      1.01334429	      0.12848523	     -6.87931466	     -4.78125499	    -10.09709940	      2.31121674	      7.58028027	      2.79642070	      0.00000000	     -1.91028546	     -4.73358944	    -19.56004418	      6.59184154	     10.81120902	      5.11192125	      0.00000000	     -8.98715146	     -1.61818460	      0.19886559	     19.55684245	    -18.81862909	     34.48490317	     73.49363515	    115.00933107	     17.26281535	    -18.22326365	     29.49302539	     77.03999509	    115.76970366
      1.23333330	     10.33138817	     -0.36722226	    -16.77577637	      0.28922856	      1.01375056	      0.12908736	     -7.72547017	     -4.73204480	     -9.87154520	      1.45000407	      7.40677681	      2.91559569	      0.00000000	     -2.73053409	     -4.52091730	    -19.47640930	      5.80296638	     10.74799164	      5.24408055	      0.00000000	     -8.74046473	     -1.56703168	      0.28982048	     18.28806939	    -18.10142431	     34.52754227	     68.29034038	    114.74715865	     15.92893869	    -17.69467828	     29.51727570	     71.42722302	    115.54435432
